Coordinates
version=1
nRows=38
nColumns=12
inDegrees=yes

Units are S.I. units (second, meters, Newtons, ...)
Angles are in degrees

endheader
time	SC_y	SC_z	SC_x	AC_y	AC_z	AC_x	GH_y	GH_z	GH_yy	EL_x	PS_y
       0.0              -12.27          13.57          49.28          36.37         -14.14          19.21          12.16          89.48          46.06          123.2          26.94
   0.04707              -12.27          13.57          49.28          36.38         -14.14          19.21          12.15          89.48          46.07          123.2          26.96
   0.09414              -12.27          13.57          49.27          36.38         -14.13           19.2          12.15          89.48          46.07          123.2          26.98
    0.1412              -12.27          13.57          49.26          36.38         -14.13          19.19          12.14          89.47          46.08          123.2           27.0
    0.1883              -12.27          13.57          49.26          36.38         -14.13          19.19          12.13          89.47          46.08          123.2          27.02
    0.2353              -12.27          13.57          49.25          36.39         -14.12          19.18          12.12          89.47          46.09          123.1          27.04
    0.2824              -12.27          13.57          49.25          36.39         -14.12          19.17          12.12          89.46          46.09          123.1          27.06
    0.3295              -12.27          13.57          49.24           36.4         -14.11          19.17          12.11          89.46           46.1          123.1          27.09
    0.3766              -12.27          13.57          49.23           36.4         -14.11          19.16           12.1          89.45          46.11          123.1          27.12
    0.4236              -12.27          13.57          49.22           36.4         -14.11          19.15          12.09          89.45          46.11          123.1          27.15
    0.4707              -12.27          13.58          49.21          36.41          -14.1          19.14          12.08          89.44          46.12          123.1          27.18
    0.5178              -12.27          13.58           49.2          36.42         -14.09          19.13          12.06          89.44          46.13          123.1          27.21
    0.5648              -12.27          13.58          49.19          36.42         -14.09          19.12          12.05          89.43          46.14          123.0          27.25
    0.6119              -12.27          13.58          49.18          36.43         -14.08          19.11          12.04          89.43          46.15          123.0          27.29
     0.659              -12.27          13.58          49.17          36.43         -14.08           19.1          12.02          89.42          46.16          123.0          27.33
     0.706              -12.27          13.58          49.16          36.44         -14.07          19.08          12.01          89.41          46.17          123.0          27.38
    0.7531              -12.27          13.58          49.14          36.45         -14.06          19.07          11.99           89.4          46.18          123.0          27.43
    0.8002              -12.27          13.58          49.13          36.46         -14.05          19.05          11.97          89.39           46.2          122.9          27.49
    0.8473              -12.27          13.58          49.11          36.47         -14.04          19.03          11.95          89.38          46.21          122.9          27.55
    0.8943              -12.27          13.59          49.09          36.48         -14.03          19.02          11.93          89.37          46.23          122.9          27.62
    0.9414              -12.27          13.59          49.07          36.49         -14.02          18.99           11.9          89.36          46.25          122.8          27.69
    0.9885              -12.26          13.59          49.05           36.5         -14.01          18.97          11.87          89.35          46.27          122.8          27.77
     1.036              -12.26          13.59          49.03          36.52         -13.99          18.95          11.84          89.33          46.29          122.8          27.86
     1.083              -12.26           13.6           49.0          36.53         -13.98          18.92          11.81          89.32          46.31          122.7          27.96
      1.13              -12.26           13.6          48.97          36.55         -13.96          18.89          11.77           89.3          46.34          122.7          28.07
     1.177              -12.26           13.6          48.94          36.57         -13.94          18.85          11.73          89.28          46.37          122.6          28.19
     1.224              -12.26           13.6           48.9          36.59         -13.92          18.81          11.68          89.26          46.41          122.5          28.33
     1.271              -12.26          13.61          48.86          36.61         -13.89          18.77          11.63          89.23          46.44          122.5          28.48
     1.318              -12.26          13.61          48.81          36.64         -13.86          18.72          11.57           89.2          46.49          122.4          28.65
     1.365              -12.26          13.62          48.75          36.67         -13.83          18.66           11.5          89.17          46.54          122.3          28.85
     1.412              -12.25          13.62          48.69           36.7          -13.8          18.59          11.43          89.13          46.59          122.2          29.08
     1.459              -12.25          13.63          48.62          36.74         -13.75          18.52          11.34          89.09          46.66          122.1          29.34
     1.506              -12.25          13.64          48.54          36.79         -13.71          18.43          11.24          89.04          46.73          121.9          29.63
     1.553              -12.25          13.65          48.44          36.84         -13.65          18.33          11.12          88.99          46.81          121.8          29.98
       1.6              -12.24          13.66          48.33          36.91         -13.59          18.22          10.98          88.92          46.92          121.6          30.39
     1.647              -12.24          13.67           48.2          36.98         -13.51          18.08          10.81          88.84          47.03          121.3          30.87
     1.695              -12.23          13.68          48.04          37.07         -13.42          17.92          10.62          88.75          47.17          121.1          31.43
     1.742              -12.23           13.7          47.86          37.18         -13.31          17.72          10.38          88.64          47.34          120.8          32.12
